
                <svg xmlns="http://www.w3.org/2000/svg" xmlns:xlink="http://www.w3.org/1999/xlink" width="845" height="511" shape-rendering="optimizeSpeed">
                
            <g>
                <rect x="50" y="80" width="291.79999999999995" height="30" style="fill:#a5d6a7; stroke:#444; stroke-width:1"></rect>
                    
                <line x1="60" y1="80" x2="60" y2="110" style="fill:#a5d6a7; stroke:#444; stroke-width:1"></line>
                <line x1="331.79999999999995" y1="80" x2="331.79999999999995" y2="110" style="fill:#a5d6a7; stroke:#444; stroke-width:1"></line>
             
                <title>function 单个粒子沉积处理函数()</title>
            <text x="75" y="100" font-family="monospace" font-size="13" fill="#222">
                <tspan x="75" y="100">function 单个粒子沉积处理函数()</tspan>
            </text>
                
            </g><g>
            <rect x="117" y="143.5" width="278.4" height="30" rx="3" ry="3" style="fill:#ce93d8; stroke:#444; stroke-width:1"></rect>                
            <polygon points="87,158.5 117,128.5 147,158.5 117,188.5" style="fill:#ce93d8; stroke:#444; stroke-width:1"></polygon>
            <title>(与某纤维中心距离大于临界值)</title>
            <text x="162" y="163.5" font-family="monospace" font-size="13" fill="#222">
                <tspan x="162" y="163.5">(与某纤维中心距离大于临界值)</tspan>
            </text>
            
            <text x="109.2" y="163.5" font-family="monospace" font-size="13" fill="#222">if</text> <text x="124.8" y="190.45" font-family="monospace" font-size="13" fill="#222">+</text> <text x="399.29999999999995" y="156.55" font-family="monospace" font-size="13" fill="#222">-</text>
        </g><g>

            <rect x="167" y="233.5" width="184.8" height="30" rx="3" ry="3" style="fill:#b39ddb; stroke:#444; stroke-width:1"></rect>
            <polygon points="137,248.5 167,218.5 197,248.5 167,278.5" style="fill:#b39ddb; stroke:#444; stroke-width:1"></polygon>
                
            <title>遍历所有邻居粒子</title>
            <text x="212" y="253.5" font-family="monospace" font-size="13" fill="#222">
                <tspan x="212" y="253.5">遍历所有邻居粒子</tspan>
            </text>
            
            <text x="147.5" y="253.5" font-family="monospace" font-size="13" fill="#222">while</text>
        </g><g>
            <rect x="217" y="303.5" width="309.6" height="30" rx="3" ry="3" style="fill:#ce93d8; stroke:#444; stroke-width:1"></rect>                
            <polygon points="187,318.5 217,288.5 247,318.5 217,348.5" style="fill:#ce93d8; stroke:#444; stroke-width:1"></polygon>
            <title>(与某相邻粒子中心距离小于临界值)</title>
            <text x="262" y="323.5" font-family="monospace" font-size="13" fill="#222">
                <tspan x="262" y="323.5">(与某相邻粒子中心距离小于临界值)</tspan>
            </text>
            
            <text x="209.2" y="323.5" font-family="monospace" font-size="13" fill="#222">if</text> <text x="224.8" y="350.45" font-family="monospace" font-size="13" fill="#222">+</text> 
        </g>
                <g>
                   <rect x="237" y="358.5" width="170.4" height="30" rx="2" ry="2" style="fill:#C5E1A5; stroke:#444; stroke-width:1"></rect>
                   <title>标记该粒子被吸附()</title>
            <text x="252" y="378.5" font-family="monospace" font-size="13" fill="#222">
                <tspan x="252" y="378.5">标记该粒子被吸附()</tspan>
            </text>
                   
                   
                </g>
                <g>
                   <rect x="237" y="407" width="232.79999999999998" height="30" rx="2" ry="2" style="fill:#C5E1A5; stroke:#444; stroke-width:1"></rect>
                   <title>标记该粒子所处位置的格子()</title>
            <text x="252" y="427" font-family="monospace" font-size="13" fill="#222">
                <tspan x="252" y="427">标记该粒子所处位置的格子()</tspan>
            </text>
                   
                   
                </g>
            <g>
                <rect x="237" y="455.5" width="69" height="30" rx="2" ry="2" style="fill:#90caf9; stroke:#444; stroke-width:1"></rect>
                
                <line x1="306" y1="465.5" x2="311" y2="465.5" style="fill:#ce93d8; stroke:#444; stroke-width:1"></line>
                
                <line x1="306" y1="475.5" x2="311" y2="475.5" style="fill:#ce93d8; stroke:#444; stroke-width:1"></line>

                <path d="M311, 456.5 L327, 470.5 L311, 484.5 Z" fill="#ce93d8" stroke="#444" stroke-width="1"></path>
                             
                <title>break</title>
            <text x="252" y="475.5" font-family="monospace" font-size="13" fill="#222">
                <tspan x="252" y="475.5">break</tspan>
            </text>
                
            </g>
                <g>
                   <rect x="586.6" y="198.5" width="170.4" height="30" rx="2" ry="2" style="fill:#C5E1A5; stroke:#444; stroke-width:1"></rect>
                   <title>标记该粒子被吸附()</title>
            <text x="601.6" y="218.5" font-family="monospace" font-size="13" fill="#222">
                <tspan x="601.6" y="218.5">标记该粒子被吸附()</tspan>
            </text>
                   
                   
                </g>
                <g>
                   <rect x="586.6" y="247" width="232.79999999999998" height="30" rx="2" ry="2" style="fill:#C5E1A5; stroke:#444; stroke-width:1"></rect>
                   <title>标记该粒子所处位置的格子()</title>
            <text x="601.6" y="267" font-family="monospace" font-size="13" fill="#222">
                <tspan x="601.6" y="267">标记该粒子所处位置的格子()</tspan>
            </text>
                   
                   
                </g>
            <g>
                <rect x="586.6" y="295.5" width="76.8" height="30" rx="3" ry="3" style="fill:#90caf9; stroke:#444; stroke-width:1"></rect>
                
                <line x1="663.4" y1="305.5" x2="668.4" y2="305.5" style="fill:#a5d6a7; stroke:#444; stroke-width:1"></line>
                
                <line x1="663.4" y1="315.5" x2="668.4" y2="315.5" style="fill:#a5d6a7; stroke:#444; stroke-width:1"></line>

                <path d="M668.4, 299.5 L684.4, 310.5 L668.4, 321.5 Z" fill="#a5d6a7" stroke="#444" stroke-width="1"></path>
                             
                <title>return</title>
            <text x="601.6" y="315.5" font-family="monospace" font-size="13" fill="#222">
                <tspan x="601.6" y="315.5">return</tspan>
            </text>
                
            </g>
            <g>
               <rect x="25" y="13.75" width="216.6" height="24" style="fill:#fff59d; stroke:#444; stroke-width:1"></rect>
               <circle cx="25" cy="25" r="15" style="fill:#fff59d; stroke:#444; stroke-width:1"></circle>
               <title>Program: source module</title>
            <text x="55" y="30" font-family="monospace" font-size="13" fill="#222">
                <tspan x="55" y="30">Program: source module</tspan>
            </text>
            </g>
            <g>
               <path d="M25, 40 L25 91 Q25 95
                29 95
                L42 95 " style="fill:none; stroke:#444; stroke-width:1"></path>
               <path d="M42, 92 L50, 95 L42, 98 Z" fill="#333"></path>
            </g>
            <g>
               <path d="M68.5, 110 L68.5 154.5 Q68.5 158.5
                72.5 158.5
                L79 158.5 " style="fill:none; stroke:#444; stroke-width:1"></path>
               <path d="M79, 155.5 L87, 158.5 L79, 161.5 Z" fill="#333"></path>
            </g>
            <g>
               <path d="M117, 188.5 L117 244.5 Q117 248.5
                121 248.5
                L129 248.5 " style="fill:none; stroke:#444; stroke-width:1"></path>
               <path d="M129, 245.5 L137, 248.5 L129, 251.5 Z" fill="#333"></path>
            </g>
            <g>
               <path d="M167, 278.5 L167 314.5 Q167 318.5
                171 318.5
                L179 318.5 " style="fill:none; stroke:#444; stroke-width:1"></path>
               <path d="M179, 315.5 L187, 318.5 L179, 321.5 Z" fill="#333"></path>
            </g>
            <g>
               <path d="M217, 348.5 L217 369.5 Q217 373.5
                221 373.5
                L229 373.5 " style="fill:none; stroke:#444; stroke-width:1"></path>
               <path d="M229, 370.5 L237, 373.5 L229, 376.5 Z" fill="#333"></path>
            </g>
            <g>
               <path d="M217, 348.5 L217 418 Q217 422
                221 422
                L229 422 " style="fill:none; stroke:#444; stroke-width:1"></path>
               <path d="M229, 419 L237, 422 L229, 425 Z" fill="#333"></path>
            </g>
            <g>
               <path d="M217, 348.5 L217 466.5 Q217 470.5
                221 470.5
                L229 470.5 " style="fill:none; stroke:#444; stroke-width:1"></path>
               <path d="M229, 467.5 L237, 470.5 L229, 473.5 Z" fill="#333"></path>
            </g>
            <g>
               <path d="M327, 470.5 L542.6 470.5  Q546.6 470.5
                546.6 466.5
                L546.6 206.5 Q546.6 198.5
                542.6 198.5
                L175 198.5  Q167 198.5
                167 202.5
                L167 210.5" style="fill:none; stroke:#444; stroke-width:1"></path>
               <path d="M164, 210.5 L167, 218.5 L170, 210.5 Z" fill="#333"></path>
            </g>
            <g>
               <path d="M395.4, 158.5 L562.6 158.5  Q566.6 158.5
                566.6 162.5
                L566.6 205.5 Q566.6 213.5
                570.6 213.5
                L578.6 213.5 " style="fill:none; stroke:#444; stroke-width:1"></path>
               <path d="M578.6, 210.5 L586.6, 213.5 L578.6, 216.5 Z" fill="#333"></path>
            </g>
            <g>
               <path d="M395.4, 158.5 L562.6 158.5  Q566.6 158.5
                566.6 162.5
                L566.6 254 Q566.6 262
                570.6 262
                L578.6 262 " style="fill:none; stroke:#444; stroke-width:1"></path>
               <path d="M578.6, 259 L586.6, 262 L578.6, 265 Z" fill="#333"></path>
            </g>
            <g>
               <path d="M395.4, 158.5 L562.6 158.5  Q566.6 158.5
                566.6 162.5
                L566.6 302.5 Q566.6 310.5
                570.6 310.5
                L578.6 310.5 " style="fill:none; stroke:#444; stroke-width:1"></path>
               <path d="M578.6, 307.5 L586.6, 310.5 L578.6, 313.5 Z" fill="#333"></path>
            </g>
            </svg>